FFmpeg version SVN-r25716, Copyright (c) 2000-2010 the FFmpeg developers  built on Nov 10 2010 12:23:18 with gcc 4.1.2 20080704 (Red Hat 4.1.2-48)  configuration: --enable-libmp3lame --enable-shared --disable-mmx --arch=x86_64  libavutil     50.33. 0 / 50.33. 0  libavcore      0.12. 1 /  0.12. 1  libavcodec    52.94. 4 / 52.94. 4  libavformat   52.84. 0 / 52.84. 0  libavdevice   52. 2. 2 / 52. 2. 2  libavfilter    1.59. 0 /  1.59. 0  libswscale     0.12. 0 /  0.12. 0Seems stream 0 codec frame rate differs from container frame rate: 1200.00 (1200/1) -> 15.00 (15/1)Input #0, mov,mp4,m4a,3gp,3g2,mj2, from '/RAID10/data/converted_video_files/42158.mov':  Metadata:    major_brand     : qt      minor_version   : 537199360    compatible_brands: qt    Duration: 00:00:19.33, start: 0.000000, bitrate: 5333 kb/s    Stream #0.0(eng): Video: h264, yuv420p, 500x500, 5330 kb/s, 15 fps, 15 tbr, 600 tbn, 1200 tbc[buffer @ 0x1819480] w:500 h:500 pixfmt:yuv420pOutput #0, flv, to '/RAID10/data/converted_video_files/42158.flv':  Metadata:    encoder         : Lavf52.84.0    Stream #0.0(eng): Video: flv, yuv420p, 500x500, q=2-31, 600 kb/s, 1k tbn, 24 tbcStream mapping:  Stream #0.0 -> #0.0Press [q] to stop encodingframe=   25 fps=  0 q=9.1 size=     237kB time=1.62 bitrate=1196.3kbits/s    frame=   63 fps= 61 q=12.6 size=     379kB time=4.17 bitrate= 744.2kbits/s    frame=  100 fps= 65 q=15.0 size=     534kB time=6.62 bitrate= 660.4kbits/s    frame=  134 fps= 65 q=15.6 size=     682kB time=8.92 bitrate= 626.4kbits/s    frame=  167 fps= 65 q=14.6 size=     817kB time=11.12 bitrate= 601.6kbits/s    frame=  199 fps= 65 q=13.3 size=     958kB time=13.25 bitrate= 592.5kbits/s    frame=  233 fps= 65 q=12.4 size=    1106kB time=15.50 bitrate= 584.8kbits/s    frame=  266 fps= 65 q=11.8 size=    1251kB time=17.71 bitrate= 578.9kbits/s    frame=  290 fps= 65 q=10.9 Lsize=    1355kB time=19.29 bitrate= 575.6kbits/s    video:1351kB audio:0kB global headers:0kB muxing overhead 0.350648%